<svg version="1" xmlns="http://www.w3.org/2000/svg" width="2240" height="2240" viewBox="0 0 1680.000000 1680.000000"><path d="M162 .6c-1.4.2-5.9.9-10 1.5-30.1 4.5-61.6 18.5-86 38.4C30.6 69.4 7.8 110.4 1.3 157c-1.1 7.3-1 1357.7 0 1366 7.8 63.5 51.2 119.6 111.2 144.2 4.4 1.7 17.7 6.2 18.5 6.1.3 0 1.5.3 2.8.8 2.3.9 4.7 1.4 11.2 2.5 1.9.3 3.7.7 4 .9.3.2 3.7.7 7.5 1.2 8.7 1 1359 1.1 1366.3 0 11-1.5 12.9-1.9 18.7-3.3 52.5-12.9 96.1-47.6 119.3-94.7 7.1-14.4 8.9-18.9 12.3-30.7 1.6-5.7 1.3-4.6 2.8-11.4 4.1-18.8 4 8.6 4-698.6 0-653.8-.1-675.9-1.9-687.2-8.8-55.6-41.1-102.3-89.6-129.7-17.3-9.8-39.3-17.7-57.4-20.6-2.5-.4-5.4-1-6.5-1.4C1522.4.5 166.4 0 162 .6z"/></svg>